<?xml version="1.0" encoding="utf-8"?>
<!-- Generator: Adobe Illustrator 28.3.0, SVG Export Plug-In . SVG Version: 6.00 Build 0)  -->
<svg version="1.1" id="Lager_1" xmlns="http://www.w3.org/2000/svg" xmlns:xlink="http://www.w3.org/1999/xlink" x="0px" y="0px"
	 viewBox="0 0 595.28 596.33" style="enable-background:new 0 0 595.28 596.33;" xml:space="preserve">
<style type="text/css">
	.st0{fill:url(#SVGID_1_);}
</style>
<linearGradient id="SVGID_1_" gradientUnits="userSpaceOnUse" x1="28.9874" y1="293.9922" x2="566.8837" y2="293.9922">
	<stop  offset="0" style="stop-color:#D1E2A6"/>
	<stop  offset="1" style="stop-color:#F8D890"/>
</linearGradient>
<path class="st0" d="M282.12,341.26c-0.85,2.32-1.51,4.73-2.61,6.92c-1.69,3.38-5.15,4.62-8.34,3.28c-3.19-1.33-3.85-3.7-2.46-7.87
	c0.86-2.56,1.44-5.22,2.14-7.84c0.2,0.04,0.4,0.09,0.59,0.13c-0.07-0.08-0.17-0.22-0.19-0.21c-0.12,0.06-0.22,0.16-0.33,0.25
	c-6.58,3.54-13.01,7.43-19.8,10.51c-5.57,2.52-11.49,4.37-17.41,5.96c-4.9,1.32-9.95,0.78-14.69-1.23
	c-3.34-1.42-4.79-4.58-3.71-7.67c1.21-3.47,4.15-4.79,8-3.58c3.87,1.22,4.72,0.66,4.96-3.27c0.04-0.66,0.02-1.33-0.04-2
	c-0.65-6.74-1.31-13.48-2-20.61c-1.33-0.12-2.95-0.32-4.58-0.39c-45.46-1.77-90.92-1.83-136.38-0.04
	c-8.15,0.32-16.3,0.65-24.43,1.27c-7.37,0.56-14.43,2.45-20.83,6.34c-0.71,0.43-1.43,0.88-2.2,1.18c-3.02,1.15-6.59-0.21-8.12-3.06
	c-1.35-2.52-0.8-4.51,2.22-6.8c8.4-6.36,18.15-8.96,28.44-9.63c37.92-2.47,75.9-2.74,113.88-2.28c18.32,0.22,36.63,0.8,54.95,1.34
	c2.84,0.08,5.02-0.55,7.19-2.49c3.42-3.06,7.48-5,12.28-4.65c5.36,0.38,9.13,5.12,8.29,10.38c-0.85,5.31-5.69,7.75-10.44,5.23
	c-0.85-0.45-1.62-1.05-2.48-1.62c-4.57,3.37-5.86,7.91-5.33,12.91c0.56,5.28,1.65,10.5,2.63,16.52c9.81-3.47,17.7-9.93,26.54-14.52
	C272.61,329.57,277.36,335.42,282.12,341.26z M233.85,537.59c112.05,29.15,225.84-20,282.57-118.13
	c13.73-23.75,23.24-49.08,28.69-76.57c-2.24,0.12-3.64,0.2-4.92,0.27C518.14,454.1,419.21,540.39,298.72,540.85
	c-117.39,0.45-217.91-81.91-242.34-194.12c-1.35,0.06-2.76,0.12-4.23,0.19C65.3,420.21,126.66,509.71,233.85,537.59z M508.98,156.84
	c-1.59-2.53-3.06-5.14-4.78-7.58C451.26,74.09,362.37,33.03,268.88,43.74c-43.99,5.04-84.02,20.45-119.51,46.85
	C89.63,135.03,55.91,194.67,47.16,268.5c-0.42,3.54-0.39,7.14-0.56,10.64c4.15,0.77,4.92-0.99,5.27-4c1.2-10.24,2.02-20.6,4.2-30.65
	c15.53-71.55,54.7-126.57,117.64-163.85c49.47-29.3,103.33-39.03,160.19-30.86c53.51,7.69,99.38,31.08,137.92,68.89
	c11.92,11.69,22.32,24.68,31.94,38.3C505.51,156.94,507.25,156.89,508.98,156.84z M296.5,339.96c1.41,2.35,2.96,4.61,4.45,6.92
	c2.66-0.03,5.34,0.18,7.97-0.13c20.97-2.43,40.58-8.95,58.56-20.04c5.93-3.66,12.24-6.17,19.12-6.73
	c10.94-0.9,21.92-1.59,32.89-1.97c46.46-1.61,92.91-1.45,139.36,0.54c1.15,0.05,2.34,0.01,3.47-0.19c2.85-0.49,4.32-2.34,4.55-5.15
	c0.22-2.76-1.53-5.37-4.17-6.09c-1.26-0.34-2.63-0.37-3.96-0.41c-11.65-0.38-23.3-0.74-34.95-1.1
	c-43.14-1.32-86.26-0.42-129.37,1.47c-12.13,0.53-23.55,3.26-34.06,9.97c-13.32,8.49-28.05,13.81-43.6,16.6
	c-7.86,1.41-15.82,4.28-23.74,0.04C294.17,335.77,295.26,337.91,296.5,339.96z M301.84,293.89c0.34-0.57,0.74-1.11,1-1.72
	c14.75-34.24,29.49-68.48,44.22-102.73c0.46-1.06,0.9-2.17,1.08-3.3c0.5-3.21-1.3-6.15-4.2-7.1c-2.92-0.96-4.99,0.11-6.73,3.52
	c-0.45,0.89-0.82,1.82-1.22,2.74c-11.44,26.42-22.94,52.82-34.3,79.27c-4.46,10.38-8.61,20.9-12.9,31.35
	C292.91,293.8,297.37,293.81,301.84,293.89z M504.43,158.81c18.67,27.75,30.42,58.29,36.44,91.06c1.71,9.3,2.32,18.8,3.47,28.21
	c0.12,0.94,0.48,1.86,0.8,3.06c1.45-0.15,2.7-0.28,4.11-0.43c0-1.62,0.07-2.93-0.01-4.23c-1.71-29.57-9.15-57.74-21.01-84.79
	c-5.35-12.19-11.4-24.03-19.25-34.86c-1.74,0.05-3.48,0.09-5.21,0.14C503.98,157.6,504.08,158.29,504.43,158.81z M285,304.94
	c4.02,4.75,8.04,9.51,12.07,14.26c3.7-2.61,6.86-6.24,11.5-6.57c1.39,1.93,2.29,3.8,3.72,5.05c2.9,2.53,7.07,1.64,8.4-1.5
	c3.61-8.54-2.9-17.24-12.07-15.99c-2.11,0.29-4.15,1.12-6.23,1.69c-1.02,0.28-2.04,0.56-3.74,1.02c1.23-3.47,2.21-6.24,3.2-9
	c-4.47-0.08-8.93-0.09-13.05,2.04C287.52,298.93,286.26,301.93,285,304.94z M292.18,332.84c-0.47-0.17-1.1-0.19-1.38-0.52
	c-4.34-5.17-8.62-10.37-12.92-15.56c-3.34,2.33-6.68,4.65-10.02,6.98c4.75,5.84,9.51,11.68,14.26,17.52
	c0.75,0.16,1.72,0.06,2.22,0.51c4.77,4.28,10.39,5.64,16.61,5.11c-1.49-2.3-3.03-4.57-4.45-6.92c-1.24-2.05-2.33-4.19-3.48-6.28
	C292.74,333.4,292.46,333.12,292.18,332.84z M297.07,319.2c-4.02-4.75-8.04-9.51-12.07-14.26c-0.9,1.72-2.07,3.35-2.64,5.17
	c-0.86,2.71-2.08,5.04-4.48,6.65c4.3,5.2,8.59,10.4,12.92,15.56c0.28,0.33,0.91,0.35,1.38,0.52
	C291.62,327.51,293.1,322.91,297.07,319.2z M270.86,335.75c0.2,0.04,0.4,0.09,0.59,0.13c-0.07-0.08-0.17-0.22-0.19-0.21
	c-0.12,0.06-0.22,0.16-0.33,0.25L270.86,335.75z"/>
</svg>
